<svg xmlns="http://www.w3.org/2000/svg" width="60" height="46.846" viewBox="0 0 60 46.846">
	<g id="icon" transform="translate(-715 -1557)">
		<g id="Group">
			<path id="Vector" d="M17.241,16.659C17.241,5.214,9.632-2.06,0,.52,5.347,7.408,1.524,16.659,17.241,16.659Z" transform="translate(735.087 1558.188)" fill="#76a713" />
			<path id="Vector-2" data-name="Vector" d="M24.516.74C10.82-2.93,0,7.414,0,23.688c22.35,0,16.913-13.154,24.516-22.948Z" transform="translate(749.312 1564.898)" fill="#76a713" />
		</g>
		<g id="Group-2" data-name="Group">
			<path id="Vector-3" data-name="Vector" d="M3.516,0A3.52,3.52,0,0,0,0,3.516V8.2a3.516,3.516,0,0,0,7.031,0V3.516A3.52,3.52,0,0,0,3.516,0ZM4.688,8.2a1.172,1.172,0,0,1-2.344,0V3.516a1.172,1.172,0,0,1,2.344,0Z" transform="translate(715 1592.127)" />
			<path id="Vector-4" data-name="Vector" d="M5.2,6.6A3.521,3.521,0,0,0,3.516,0H1.172A1.172,1.172,0,0,0,0,1.172v9.375a1.172,1.172,0,0,0,2.344,0V7.031h.448l2.02,4.04a1.172,1.172,0,1,0,2.1-1.048ZM2.344,2.344H3.516a1.172,1.172,0,0,1,.011,2.344H2.344V2.344Z" transform="translate(723.79 1592.127)" />
			<path id="Vector-5" data-name="Vector" d="M3.516,2.326A1.173,1.173,0,0,1,4.688,3.5a1.172,1.172,0,0,0,2.344,0A3.516,3.516,0,0,0,0,3.5V8.185a3.516,3.516,0,0,0,7.031,0V7.013A1.172,1.172,0,0,0,5.859,5.841H4.688a1.172,1.172,0,0,0,0,2.344,1.172,1.172,0,0,1-2.344,0V3.5A1.173,1.173,0,0,1,3.516,2.326Z" transform="translate(732.579 1592.145)" />
			<path id="Vector-6" data-name="Vector" d="M3.516,0A3.52,3.52,0,0,0,0,3.516v7.031a1.172,1.172,0,0,0,2.344,0V8.2H4.688v2.344a1.172,1.172,0,0,0,2.344,0V3.516A3.52,3.52,0,0,0,3.516,0ZM2.344,5.859V3.516a1.172,1.172,0,0,1,2.344,0V5.859Z" transform="translate(741.368 1592.127)" />
			<path id="Vector-7" data-name="Vector" d="M6.445,0A1.172,1.172,0,0,0,5.273,1.172v4.9L2.193.6A1.172,1.172,0,0,0,0,1.172v9.375a1.172,1.172,0,0,0,2.344,0v-4.9l3.08,5.476a1.172,1.172,0,0,0,2.193-.575V1.172A1.172,1.172,0,0,0,6.445,0Z" transform="translate(750.157 1592.127)" />
			<path id="Vector-8" data-name="Vector" d="M1.172,0A1.172,1.172,0,0,0,0,1.172v9.375a1.172,1.172,0,0,0,2.344,0V1.172A1.172,1.172,0,0,0,1.172,0Z" transform="translate(759.532 1592.127)" />
			<path id="Vector-9" data-name="Vector" d="M3.516,2.326A1.173,1.173,0,0,1,4.688,3.5a1.172,1.172,0,0,0,2.344,0A3.516,3.516,0,0,0,0,3.5V8.185a3.516,3.516,0,0,0,7.031,0,1.172,1.172,0,1,0-2.344,0,1.172,1.172,0,0,1-2.344,0V3.5A1.173,1.173,0,0,1,3.516,2.326Z" transform="translate(763.634 1592.145)" />
			<path id="Vector-10" data-name="Vector" d="M7.031,8.185V3.5A3.516,3.516,0,0,0,0,3.5V8.185A3.516,3.516,0,0,0,7.031,8.185Zm-4.688,0V3.5a1.172,1.172,0,0,1,2.344,0V8.185A1.172,1.172,0,0,1,2.344,8.185Z" transform="translate(721.25 1578.083)" />
			<path id="Vector-11" data-name="Vector" d="M7.031,8.185V3.5A3.516,3.516,0,0,0,0,3.5V8.185A3.516,3.516,0,0,0,7.031,8.185Zm-4.688,0V3.5a1.172,1.172,0,1,1,2.344,0V8.185A1.172,1.172,0,0,1,2.344,8.185Z" transform="translate(730.105 1578.083)" />
			<path id="Vector-12" data-name="Vector" d="M1.166,2.344h.912v8.2a1.172,1.172,0,0,0,2.344,0V1.172A1.172,1.172,0,0,0,3.249,0H1.166a1.172,1.172,0,0,0,0,2.344Z" transform="translate(715.006 1578.064)" />
			<path id="Vector-13" data-name="Vector" d="M6.384.124A1.172,1.172,0,0,0,4.811.648L.124,10.023a1.172,1.172,0,1,0,2.1,1.048L6.908,1.7A1.172,1.172,0,0,0,6.384.124Z" transform="translate(738.959 1578.064)" />
			<path id="Vector-14" data-name="Vector" d="M1.166,2.344A1.172,1.172,0,0,0,1.166,0h0A1.172,1.172,0,0,0,1.166,2.344Z" transform="translate(738.966 1578.064)" />
			<path id="Vector-15" data-name="Vector" d="M1.172,0h0A1.172,1.172,0,1,0,2.344,1.172,1.172,1.172,0,0,0,1.172,0Z" transform="translate(743.646 1587.439)" />
			<path id="Vector-16" data-name="Vector" d="M41.022,8.264a1.172,1.172,0,0,0-.807-.758c-8.149-2.239-16.085.441-20.86,6.927C18.221,4.827,10.417-2.091.867.577A1.178,1.178,0,0,0,.245,2.428a20.283,20.283,0,0,1,2.967,6.3c1.971,6.813,5.391,9.919,13.5,10.257a31.175,31.175,0,0,0-2.491,12.6,1.172,1.172,0,0,0,1.172,1.172c7.4,0,12.4-1.387,15.721-4.365,5.617-5.12,5.012-13.126,9.721-19.037a1.172,1.172,0,0,0,.185-1.092ZM5.434,7.983A27.321,27.321,0,0,0,3.121,2.5c6.46-1.038,11.652,3.3,13.338,9.509A43.743,43.743,0,0,0,10.908,5.98,1.172,1.172,0,0,0,9.334,7.716a34.546,34.546,0,0,1,7.308,8.917c-6.979-.368-9.444-2.64-11.207-8.65Zm28.883,9.733c-2.277,6.808-4.1,12.244-17.207,12.672a40.038,40.038,0,0,1,7.169-9.944,1.172,1.172,0,0,0-1.71-1.6,52.375,52.375,0,0,0-5.462,6.792C18.992,14.937,27.237,7.348,37.941,9.394A35.518,35.518,0,0,0,34.317,17.715Z" transform="translate(733.917 1557)" />
			<path id="Vector-17" data-name="Vector" d="M1.172,0h0A1.172,1.172,0,1,0,2.344,1.172,1.171,1.171,0,0,0,1.171,0Z" transform="translate(759.93 1571.773)" />
		</g>
	</g>
</svg>
