<svg xmlns="http://www.w3.org/2000/svg" width="50" height="47.711" viewBox="0 0 50 47.711">
	<g id="icon" transform="translate(-1015 -1557)">
		<path id="Vector" d="M17.327,15.16l.041-.014a13.808,13.808,0,0,1,4.365-.708H32.488a2.888,2.888,0,0,0,0-5.775H24.779A9.9,9.9,0,0,1,19.559,7.2a28.631,28.631,0,0,0-8.73-3.591C4.332,2.166,0,7.941,0,7.941v7.941l2.532.253a30.117,30.117,0,0,1,9.009,2.347l7.708,3.352a11.957,11.957,0,0,0,9.208.137l6.2-2.479,1.11-.277a9.813,9.813,0,0,0,6.6-5.568L48.37,0h-.5a6.228,6.228,0,0,0-4.982,2.491L35.5,11" transform="translate(1015.815 1581.078)" fill="rgba(234,197,131,0.5)" />
		<path id="Vector-2" data-name="Vector" d="M24.833,24.448A12.788,12.788,0,0,1,19.738,23.4L12.03,20.045a29.233,29.233,0,0,0-8.764-2.284L.734,17.508A.815.815,0,0,1,0,16.7V8.756a.813.813,0,0,1,.163-.489C.352,8.014,4.89,2.087,11.82,3.629A29.433,29.433,0,0,1,20.8,7.324a9.07,9.07,0,0,0,4.79,1.339H33.3a3.7,3.7,0,0,1,3.15,1.758l6.639-7.649A7.043,7.043,0,0,1,48.689,0h.5a.815.815,0,0,1,.746,1.143l-6,13.647a10.7,10.7,0,0,1-7.15,6.03l-1.056.264-6.146,2.458a12.783,12.783,0,0,1-4.741.906ZM1.63,15.959l1.8.18a30.877,30.877,0,0,1,9.252,2.411L20.388,21.9a11.21,11.21,0,0,0,8.581.127l6.2-2.478a.839.839,0,0,1,.105-.034l1.11-.278a9.056,9.056,0,0,0,6.054-5.105L47.912,1.686a5.447,5.447,0,0,0-3.553,2.108L37,12.271c0,.032,0,.063,0,.1a3.707,3.707,0,0,1-3.7,3.7H22.547a12.967,12.967,0,0,0-4.106.666l-.3-.76-.253-.774.041-.014a14.585,14.585,0,0,1,4.617-.748H33.3a2.073,2.073,0,1,0,0-4.146H25.594a10.7,10.7,0,0,1-5.649-1.584,27.8,27.8,0,0,0-8.477-3.489C6.219,4.055,2.442,8.083,1.63,9.044v6.915Z" transform="translate(1015 1580.263)" />
		<path id="Vector-3" data-name="Vector" d="M.46,9.422S-3.149-.685,9.846.037c0,0,.722,14.439-9.385,9.385Z" transform="translate(1042.788 1568.768)" fill="#76a713" />
		<path id="Vector-4" data-name="Vector" d="M5.118,12.126a9.564,9.564,0,0,1-4.205-1.16.82.82,0,0,1-.4-.455c-.063-.177-1.519-4.365.795-7.462C2.986.8,6.148-.216,10.708.038a.814.814,0,0,1,.768.773c.016.324.352,7.961-3.542,10.5a5.037,5.037,0,0,1-2.816.812ZM1.952,9.658c2.14,1,3.851,1.1,5.091.292C9.352,8.442,9.852,3.965,9.864,1.635c-3.573-.087-6,.718-7.254,2.389C1.124,6.015,1.7,8.752,1.952,9.658Z" transform="translate(1041.972 1567.953)" />
		<path id="Vector-5" data-name="Vector" d="M10.433,10.233S-.633,14.3.028.02C.028.02,15.882-.92,10.433,10.233Z" transform="translate(1027.477 1557.817)" fill="#76a713" />
		<path id="Vector-6" data-name="Vector" d="M7.966,12.4A7.625,7.625,0,0,1,3.4,11.028C.933,9.22-.2,5.778.029.8A.815.815,0,0,1,.8.023C1.148,0,9.49-.443,12.3,3.771c1.307,1.961,1.2,4.53-.317,7.637a.814.814,0,0,1-.451.407A11.252,11.252,0,0,1,7.966,12.4Zm3.282-1.353h0ZM1.633,1.626c-.07,3.989.847,6.708,2.73,8.088,2.255,1.652,5.333.95,6.3.668,1.107-2.4,1.2-4.321.278-5.707C9.226,2.1,4.194,1.6,1.633,1.626Z" transform="translate(1026.663 1557)" />
		<path id="Vector-7" data-name="Vector" d="M9.387,28.055c-.026,0-.051,0-.077,0a.815.815,0,0,1-.737-.852q.072-1.438.241-2.729C9.153,18.7,8.978,5.276.489,1.561A.815.815,0,1,1,1.142.068c5,2.189,8.15,7.638,9.1,15.759.085.728.149,1.445.2,2.144,2.236-5.65,5.657-7.646,5.86-7.761a.815.815,0,0,1,.8,1.419c-.086.05-5.332,3.2-6.648,12.906-.1,1.661-.245,2.719-.258,2.816A.815.815,0,0,1,9.387,28.055Z" transform="translate(1031.605 1562.214)" />
	</g>
</svg>
